<svg xmlns="http://www.w3.org/2000/svg" viewBox="0 0 600 400" fill="none">
  <defs>
    <linearGradient id="bg" x1="0%" y1="0%" x2="100%" y2="100%">
      <stop offset="0%" style="stop-color:#0d2137;stop-opacity:0.12"/>
      <stop offset="100%" style="stop-color:#FFB800;stop-opacity:0.08"/>
    </linearGradient>
  </defs>
  <rect width="600" height="400" fill="url(#bg)"/>
  <!-- Building structure -->
  <path d="M200 280h200v80H200z" fill="#0d2137" opacity="0.35"/>
  <path d="M220 260h160v20H220z" fill="#0d2137" opacity="0.45"/>
  <rect x="240" y="200" width="40" height="60" fill="#0d2137" opacity="0.4"/>
  <rect x="320" y="200" width="40" height="60" fill="#0d2137" opacity="0.4"/>
  <rect x="400" y="200" width="40" height="60" fill="#0d2137" opacity="0.4"/>
  <!-- Hard hat -->
  <ellipse cx="300" cy="140" rx="55" ry="22" fill="#0d2137"/>
  <path d="M245 140c0-30 25-55 55-55s55 25 55 55" fill="none" stroke="#FFB800" stroke-width="12" stroke-linecap="round"/>
  <path d="M280 85v30M320 85v30" stroke="#0d2137" stroke-width="4" stroke-linecap="round"/>
  <!-- Crane / construction -->
  <rect x="420" y="120" width="8" height="160" fill="#0d2137"/>
  <rect x="350" y="120" width="80" height="12" fill="#0d2137"/>
  <rect x="350" y="115" width="12" height="80" fill="#FFB800"/>
  <circle cx="365" cy="195" r="15" fill="#FFB800" opacity="0.9"/>
</svg>
